<?xml version="1.0" standalone="no"?>
<!DOCTYPE svg PUBLIC "-//W3C//DTD SVG 20010904//EN"
 "http://www.w3.org/TR/2001/REC-SVG-20010904/DTD/svg10.dtd">
<svg version="1.0" xmlns="http://www.w3.org/2000/svg"
 width="305.000000pt" height="305.000000pt" viewBox="0 0 305.000000 305.000000"
 preserveAspectRatio="xMidYMid meet">
<metadata>
Created by potrace 1.14, written by Peter Selinger 2001-2017
</metadata>
<g transform="translate(0.000000,305.000000) scale(0.100000,-0.100000)"
fill="#000000" stroke="none">
<path d="M1250 2686 c-30 -7 -70 -21 -89 -32 -18 -10 -44 -25 -56 -32 -64 -35
-127 -129 -198 -297 -14 -33 -41 -96 -60 -140 -54 -126 -126 -295 -152 -355
-38 -90 -124 -290 -155 -360 -15 -36 -38 -90 -50 -120 -12 -30 -37 -89 -56
-130 -18 -41 -45 -104 -59 -140 -15 -36 -36 -84 -46 -107 -10 -23 -19 -45 -19
-49 0 -4 -9 -25 -19 -48 -11 -23 -34 -75 -52 -116 -17 -41 -40 -94 -50 -117
-25 -56 -24 -109 4 -157 28 -50 44 -55 58 -19 6 15 22 51 34 78 13 28 37 84
55 125 17 41 38 89 45 105 13 27 77 175 110 250 11 26 127 287 129 292 1 1 22
-3 48 -9 l46 -11 -25 -56 c-35 -76 -55 -121 -98 -221 -20 -47 -45 -103 -55
-125 -10 -22 -33 -74 -50 -115 -18 -41 -40 -93 -50 -115 -10 -22 -33 -74 -50
-115 -18 -41 -39 -88 -47 -103 -8 -16 -13 -30 -11 -32 1 -2 25 -5 52 -6 48 -3
50 -2 64 31 26 61 58 133 96 220 21 47 44 99 51 115 22 52 79 184 151 347 l69
157 47 1 c26 0 49 -3 51 -7 3 -5 -17 -55 -43 -113 -26 -58 -71 -159 -100 -225
-28 -66 -74 -172 -102 -235 -28 -63 -56 -128 -64 -145 -7 -16 -24 -56 -37 -87
-29 -64 -25 -69 41 -57 81 16 114 57 191 239 18 41 43 100 56 130 12 30 38 89
55 130 18 41 38 89 45 105 55 128 82 178 107 196 56 40 293 42 353 3 41 -27
63 -82 74 -185 6 -52 22 -166 36 -253 14 -88 25 -173 25 -190 0 -82 87 -176
163 -176 36 0 39 2 34 22 -3 13 -15 95 -27 183 -12 88 -32 237 -45 330 -13 94
-27 200 -31 236 l-6 67 46 3 c52 5 52 5 61 -77 5 -54 42 -327 84 -634 l17
-125 47 -3 c54 -4 54 -3 37 103 -5 33 -14 103 -20 155 -6 52 -21 169 -35 260
-33 229 -46 333 -41 338 2 2 22 6 44 9 38 5 40 4 46 -23 7 -39 54 -387 97
-719 16 -124 16 -125 45 -125 58 0 124 78 124 146 0 41 -14 147 -56 419 -44
290 -35 332 91 395 105 53 181 107 258 185 71 71 147 166 147 183 0 5 6 15 14
21 22 19 130 247 157 331 19 59 23 98 24 185 0 98 -3 116 -26 166 -61 130
-191 212 -389 244 -113 19 -1075 20 -1160 1z m1065 -267 c70 -26 149 -103 182
-178 13 -29 22 -55 20 -57 -2 -2 -17 1 -33 8 -61 23 -122 -15 -131 -81 -11
-80 42 -139 114 -128 38 6 39 3 17 -42 -44 -89 -165 -166 -279 -178 -63 -7
-176 30 -234 76 -95 75 -143 202 -121 322 26 148 120 241 285 283 35 9 123 -3
180 -25z m-803 -75 c51 -32 84 -68 109 -116 25 -49 24 -63 -3 -44 -67 47 -158
-10 -158 -99 0 -73 88 -128 151 -94 19 10 20 9 5 -18 -59 -108 -179 -161 -303
-134 -122 27 -201 122 -211 251 -9 128 76 250 196 280 63 16 167 3 214 -26z"/>
</g>
</svg>
